<?xml version="1.0" encoding="UTF-8" standalone="no"?><svg xmlns="http://www.w3.org/2000/svg" xmlns:xlink="http://www.w3.org/1999/xlink" contentScriptType="application/ecmascript" contentStyleType="text/css" height="167px" preserveAspectRatio="none" style="width:250px;height:167px;" version="1.1" viewBox="0 0 250 167" width="250px" zoomAndPan="magnify"><defs/><g><!--entity _defaultOptions--><rect fill="#F8F8F8" height="34.4844" rx="3" ry="3" style="stroke: #000000; stroke-width: 0.5;" width="105" x="6" y="122"/><text fill="#000000" font-family="Tahoma, sans-serif" font-size="12" lengthAdjust="spacingAndGlyphs" textLength="85" x="16" y="144.0059">defaultOptions</text><ellipse cx="51.7487" cy="25.242" fill="#F8F8F8" rx="27.7487" ry="13.242" style="stroke: #383838; stroke-width: 0.5;"/><text fill="#000000" font-family="Tahoma, sans-serif" font-size="12" font-weight="bold" lengthAdjust="spacingAndGlyphs" textLength="35" x="34.2487" y="28.9842">index</text><!--entity _model--><rect fill="#F8F8F8" height="34.4844" rx="3" ry="3" style="stroke: #000000; stroke-width: 0.5;" width="56" x="30.5" y="65"/><text fill="#000000" font-family="Tahoma, sans-serif" font-size="12" lengthAdjust="spacingAndGlyphs" textLength="36" x="40.5" y="87.0059">model</text><!--entity _observable--><rect fill="#F8F8F8" height="34.4844" rx="3" ry="3" style="stroke: #000000; stroke-width: 0.5;" width="83" x="156" y="65"/><text fill="#000000" font-family="Tahoma, sans-serif" font-size="12" lengthAdjust="spacingAndGlyphs" textLength="63" x="166" y="87.0059">observable</text><!--entity _presenter--><rect fill="#F8F8F8" height="34.4844" rx="3" ry="3" style="stroke: #000000; stroke-width: 0.5;" width="74" x="91.5" y="8"/><text fill="#000000" font-family="Tahoma, sans-serif" font-size="12" lengthAdjust="spacingAndGlyphs" textLength="54" x="101.5" y="30.0059">presenter</text><!--entity _view--><rect fill="#F8F8F8" height="34.4844" rx="3" ry="3" style="stroke: #000000; stroke-width: 0.5;" width="45" x="99" y="65"/><text fill="#000000" font-family="Tahoma, sans-serif" font-size="12" lengthAdjust="spacingAndGlyphs" textLength="25" x="109" y="87.0059">view</text><!--link <b>index</b> to _defaultOptions--><path d="M40.9139,37.283 C34.8184,44.579 27.7412,54.624 24.5,65 C19.9944,79.4238 19.1979,84.8496 24.5,99 C27.112,105.971 31.5961,112.5158 36.4664,118.1798 " fill="none" id="&lt;b&gt;index&lt;/b&gt;-_defaultOptions" style="stroke: #000000; stroke-width: 1.0;"/><polygon fill="#000000" points="39.8816,121.9547,36.8099,112.5971,36.5272,118.2469,30.8774,117.9641,39.8816,121.9547" style="stroke: #000000; stroke-width: 1.0;"/><!--link <b>index</b> to _model--><path d="M53.0535,38.206 C53.8495,44.461 54.8425,52.262 55.7618,59.4852 " fill="none" id="&lt;b&gt;index&lt;/b&gt;-_model" style="stroke: #000000; stroke-width: 1.0;"/><polygon fill="#000000" points="56.4459,64.8605,59.2776,55.4275,55.8146,59.9005,51.3416,56.4375,56.4459,64.8605" style="stroke: #000000; stroke-width: 1.0;"/><!--link <b>index</b> to _presenter--><path d="M79.1719,25 C81.4119,25 83.6519,25 85.8919,25 " fill="none" id="&lt;b&gt;index&lt;/b&gt;-_presenter" style="stroke: #000000; stroke-width: 1.0;"/><polygon fill="#000000" points="91.1185,25,82.1185,21,86.1185,25,82.1185,29,91.1185,25" style="stroke: #000000; stroke-width: 1.0;"/><!--link <b>index</b> to _view--><path d="M64.9967,36.605 C73.9754,43.659 86.0367,53.136 96.7098,61.522 " fill="none" id="&lt;b&gt;index&lt;/b&gt;-_view" style="stroke: #000000; stroke-width: 1.0;"/><polygon fill="#000000" points="100.8763,64.7957,96.2708,56.09,96.9447,61.7066,91.3282,62.3805,100.8763,64.7957" style="stroke: #000000; stroke-width: 1.0;"/><!--link _model to _defaultOptions--><path d="M58.5,99.2043 C58.5,104.6386 58.5,110.7852 58.5,116.5571 " fill="none" id="_model-_defaultOptions" style="stroke: #000000; stroke-width: 0.5;"/><polygon fill="#000000" points="58.5,121.7214,62.5,112.7214,58.5,116.7214,54.5,112.7214,58.5,121.7214" style="stroke: #000000; stroke-width: 0.5;"/><!--link _presenter to _model--><path d="M107.876,42.204 C100.2542,48.193 91.5311,55.047 83.5585,61.3112 " fill="none" id="_presenter-_model" style="stroke: #000000; stroke-width: 0.5;"/><polygon fill="#000000" points="79.2182,64.7214,88.7663,62.3062,83.1498,61.6323,83.8237,56.0157,79.2182,64.7214" style="stroke: #000000; stroke-width: 0.5;"/><!--link _presenter to _observable--><path d="M148.829,42.204 C156.342,48.193 164.941,55.047 172.8,61.3112 " fill="none" id="_presenter-_observable" style="stroke: #000000; stroke-width: 0.5;"/><polygon fill="#000000" points="177.078,64.7214,172.5343,55.9833,173.1684,61.6045,167.5472,62.2386,177.078,64.7214" style="stroke: #000000; stroke-width: 0.5;"/><!--link _presenter to _view--><path d="M126.438,42.204 C125.746,47.639 124.964,53.785 124.229,59.5571 " fill="none" id="_presenter-_view" style="stroke: #000000; stroke-width: 0.5;"/><polygon fill="#000000" points="123.572,64.7214,128.6763,56.2984,124.2033,59.7614,120.7403,55.2884,123.572,64.7214" style="stroke: #000000; stroke-width: 0.5;"/><!--link _view to _defaultOptions--><path d="M102.9387,99.2043 C96.0788,105.1931 88.228,112.047 81.0526,118.3112 " fill="none" id="_view-_defaultOptions" style="stroke: #000000; stroke-width: 0.5;"/><polygon fill="#000000" points="77.1464,121.7214,86.5569,118.8157,80.913,118.4331,81.2956,112.7892,77.1464,121.7214" style="stroke: #000000; stroke-width: 0.5;"/><script type="text/plantuml"><![CDATA[
@startuml

scale max 1920 width
top to bottom direction

skinparam nodesep 12
skinparam ranksep 23
skinparam monochrome true
skinparam shadowing false
skinparam defaultFontName Tahoma
skinparam defaultFontSize 12
skinparam roundCorner 6
skinparam dpi 150
skinparam arrowColor black
skinparam arrowThickness 0.5
skinparam packageTitleAlignment left

skinparam usecase {
  borderThickness 0.5
}

skinparam rectangle {
  borderThickness 0.5
}

skinparam component {
  borderThickness 1
}


rectangle "defaultOptions" as _defaultOptions
(<b>index</b>)
rectangle "model" as _model
rectangle "observable" as _observable
rectangle "presenter" as _presenter
rectangle "view" as _view


(<b>index</b>) -[thickness=1]> _defaultOptions
(<b>index</b>) -[thickness=1]> _model
(<b>index</b>) -[thickness=1]> _presenter
(<b>index</b>) -[thickness=1]> _view
_model --> _defaultOptions
_presenter --> _model
_presenter --> _observable
_presenter --> _view
_view --> _defaultOptions

@enduml


' View and edit on https://arkit.pro
]]></script></g></svg>